<?xml version="1.0" encoding="utf-8"?>
<!-- Generator: Adobe Illustrator 25.4.6, SVG Export Plug-In . SVG Version: 6.00 Build 0)  -->
<svg version="1.1" id="Layer_1" xmlns="http://www.w3.org/2000/svg" xmlns:xlink="http://www.w3.org/1999/xlink" x="0px" y="0px"
	 viewBox="0 0 141.73 141.73" style="enable-background:new 0 0 141.73 141.73;" xml:space="preserve">
<g>
	<path d="M64.68,72.42c0.03,3.39-1.97,5.89-6.01,7.47c-2.79,1.08-6.23,1.64-10.31,1.68l-20.71,0.2l-0.33-33.51l21.55-0.21
		c3.59-0.04,6.61,0.46,9.06,1.49c3.38,1.42,5.08,3.69,5.11,6.82c0.02,2.17-1.18,3.98-3.6,5.42c-1.8,1.07-4,1.84-6.6,2.29
		C60.69,64.7,64.64,67.48,64.68,72.42 M61.66,56.14c-0.03-2.7-1.61-4.66-4.75-5.89c-2.25-0.87-4.97-1.29-8.17-1.25l-20.01,0.2
		l0.14,14.63l19.97-0.2c3.16-0.03,5.88-0.52,8.14-1.46C60.12,60.85,61.68,58.85,61.66,56.14 M63.35,72.49
		c-0.03-3.06-1.83-5.25-5.4-6.57c-2.48-0.93-5.57-1.38-9.26-1.34l-19.82,0.19l0.16,16.06l20.11-0.2c3.49-0.03,6.49-0.56,8.98-1.57
		C61.64,77.64,63.38,75.45,63.35,72.49"/>
	<path d="M114.24,65.31c0.1,0.69,0.16,1.37,0.17,2.03c0.05,4.71-2.27,8.34-6.96,10.89c-3.9,2.11-8.6,3.2-14.1,3.25
		c-6.52,0.07-11.87-1.07-16.05-3.4c-5.24-2.91-7.88-7.37-7.94-13.36c-0.06-5.93,2.42-10.44,7.43-13.52
		c4.16-2.55,9.4-3.85,15.73-3.91c4.91-0.05,9.07,0.6,12.47,1.95c4.5,1.77,7.33,4.66,8.49,8.66l-1.48,0.01
		c-2.04-6.57-8.5-9.8-19.37-9.69c-6,0.06-10.94,1.29-14.84,3.71c-4.75,2.88-7.1,7.12-7.04,12.72c0.06,5.7,2.54,9.93,7.44,12.68
		c3.94,2.2,9,3.27,15.16,3.21c4.74-0.05,8.95-0.98,12.62-2.79c4.69-2.29,7.01-5.56,6.97-9.8l-0.02-1.68l-19.37,0.19l-0.01-0.94
		L114.24,65.31z"/>
	<path d="M33.61,90.5c0,0.8-0.3,1.41-0.91,1.83c-0.52,0.36-1.21,0.54-2.05,0.54c-0.58,0-1.1-0.11-1.57-0.33
		c-0.55-0.26-0.92-0.62-1.13-1.1v1.33h-0.27V86.4h0.27v3.1c0.19-0.49,0.56-0.87,1.12-1.12c0.46-0.21,1-0.32,1.6-0.32
		c0.84,0,1.53,0.19,2.06,0.56C33.32,89.07,33.61,89.69,33.61,90.5 M33.36,90.49c0-0.74-0.26-1.3-0.79-1.7
		c-0.48-0.36-1.1-0.53-1.86-0.53c-0.81,0-1.45,0.17-1.93,0.51c-0.55,0.39-0.82,0.97-0.82,1.74c0,0.71,0.3,1.26,0.89,1.65
		c0.51,0.34,1.14,0.52,1.88,0.52c0.74,0,1.36-0.18,1.84-0.52C33.09,91.76,33.36,91.21,33.36,90.49"/>
	<path d="M40.42,92.77h-0.27v-1.32c-0.49,0.95-1.41,1.43-2.76,1.43c-0.81,0-1.49-0.19-2.02-0.57c-0.61-0.43-0.91-1.03-0.91-1.81
		c0-0.8,0.31-1.41,0.92-1.84c0.54-0.38,1.22-0.57,2.05-0.57c0.61,0,1.14,0.1,1.6,0.31c0.54,0.25,0.91,0.63,1.12,1.13v-1.42h0.27
		V92.77z M40.14,90.49c0-0.76-0.28-1.33-0.84-1.73c-0.49-0.34-1.14-0.51-1.92-0.51c-0.74,0-1.35,0.18-1.85,0.55
		c-0.54,0.41-0.82,0.97-0.82,1.68c0,0.72,0.27,1.28,0.82,1.67c0.48,0.36,1.1,0.53,1.85,0.53c0.73,0,1.36-0.18,1.89-0.53
		C39.85,91.75,40.14,91.19,40.14,90.49"/>
	<path d="M44.93,88.25c-0.85,0-1.5,0.24-1.98,0.72c-0.47,0.48-0.71,1.14-0.71,1.98v1.81h-0.27v-4.58h0.27v1.73
		c-0.02-0.61,0.29-1.08,0.93-1.43c0.52-0.27,1.11-0.41,1.76-0.41V88.25z"/>
	<polygon points="48.32,88.63 47.04,88.63 47.04,92.77 46.8,92.77 46.78,88.63 45.52,88.63 45.52,88.45 46.78,88.45 46.78,87.01 
		47.04,87.01 47.04,88.45 48.32,88.45 	"/>
	<path d="M59.27,92.61c0,1.22-0.94,1.84-2.82,1.84c-0.65,0-1.19-0.09-1.63-0.26c-0.61-0.24-0.94-0.64-0.98-1.18h0.26
		c0.09,0.85,0.88,1.27,2.36,1.27c1.7,0,2.55-0.56,2.55-1.67v-1.19c-0.21,0.44-0.59,0.77-1.14,0.99c-0.46,0.2-0.97,0.29-1.53,0.29
		c-0.79,0-1.45-0.18-1.97-0.54c-0.61-0.41-0.91-1-0.91-1.76c0-0.77,0.31-1.37,0.94-1.79c0.54-0.36,1.21-0.54,2.03-0.54
		c0.57,0,1.08,0.11,1.53,0.32c0.54,0.25,0.89,0.61,1.06,1.09v-1.29h0.26V92.61z M59,90.42c0-0.68-0.27-1.22-0.82-1.62
		c-0.49-0.36-1.09-0.54-1.79-0.54c-0.72,0-1.33,0.17-1.83,0.52c-0.56,0.39-0.84,0.93-0.84,1.62c0,0.69,0.26,1.23,0.8,1.61
		c0.47,0.34,1.06,0.51,1.78,0.51c0.73,0,1.35-0.16,1.84-0.49C58.71,91.65,59,91.11,59,90.42"/>
	<path d="M66.35,90.51l-5.79,0.01c0.02,1.45,0.94,2.18,2.74,2.18c0.53,0,1.01-0.08,1.44-0.25c0.53-0.21,0.9-0.52,1.1-0.93h0.28
		c-0.2,0.49-0.6,0.86-1.2,1.09c-0.47,0.18-1.02,0.27-1.65,0.27c-0.87,0-1.56-0.18-2.07-0.53c-0.6-0.41-0.89-1.03-0.89-1.86
		c0-0.79,0.32-1.4,0.96-1.84c0.55-0.38,1.24-0.57,2.07-0.57c0.81,0,1.49,0.16,2.04,0.49c0.65,0.39,0.98,0.97,0.98,1.74V90.51z
		 M66.02,90.34c0-0.69-0.29-1.23-0.85-1.6c-0.49-0.32-1.1-0.48-1.83-0.48c-0.74,0-1.35,0.16-1.85,0.49c-0.57,0.37-0.88,0.9-0.93,1.6
		H66.02z"/>
	<rect x="67.36" y="86.41" width="0.27" height="6.36"/>
	<path d="M74.68,92.77h-0.27v-1.32c-0.49,0.95-1.41,1.43-2.76,1.43c-0.81,0-1.49-0.19-2.02-0.57c-0.61-0.43-0.91-1.03-0.91-1.81
		c0-0.8,0.31-1.41,0.92-1.84c0.54-0.38,1.22-0.57,2.06-0.57c0.61,0,1.14,0.1,1.59,0.31c0.54,0.25,0.91,0.63,1.12,1.13v-3.1h0.27
		V92.77z M74.41,90.49c0-0.76-0.28-1.33-0.85-1.73c-0.49-0.34-1.13-0.51-1.92-0.51c-0.74,0-1.35,0.18-1.85,0.55
		c-0.54,0.41-0.82,0.97-0.82,1.68c0,0.72,0.27,1.28,0.82,1.67c0.48,0.36,1.1,0.53,1.85,0.53c0.73,0,1.36-0.18,1.89-0.53
		C74.11,91.75,74.41,91.19,74.41,90.49"/>
	<path d="M81.87,90.51l-5.79,0.01c0.02,1.45,0.94,2.18,2.74,2.18c0.53,0,1.01-0.08,1.45-0.25c0.53-0.21,0.9-0.52,1.1-0.93h0.28
		c-0.2,0.49-0.6,0.86-1.2,1.09c-0.47,0.18-1.02,0.27-1.65,0.27c-0.87,0-1.56-0.18-2.07-0.53c-0.6-0.41-0.89-1.03-0.89-1.86
		c0-0.79,0.32-1.4,0.96-1.84c0.55-0.38,1.24-0.57,2.07-0.57c0.81,0,1.49,0.16,2.04,0.49c0.65,0.39,0.98,0.97,0.98,1.74V90.51z
		 M81.54,90.34c0-0.69-0.28-1.23-0.85-1.6c-0.49-0.32-1.1-0.48-1.83-0.48c-0.74,0-1.35,0.16-1.85,0.49c-0.57,0.37-0.88,0.9-0.93,1.6
		H81.54z"/>
	<path d="M88.04,92.77h-0.27v-3.03c0-0.53-0.24-0.92-0.71-1.17c-0.38-0.21-0.85-0.31-1.43-0.31c-0.67,0-1.23,0.15-1.69,0.45
		c-0.52,0.35-0.79,0.84-0.79,1.48v2.58h-0.27v-4.58h0.27v1.19c0.14-0.46,0.48-0.81,0.99-1.03c0.42-0.18,0.91-0.27,1.47-0.27
		c0.62,0,1.15,0.1,1.58,0.31c0.56,0.28,0.84,0.69,0.84,1.26V92.77z"/>
	<path d="M94.69,92.77h-0.27v-3.03c0-0.53-0.24-0.92-0.71-1.17c-0.38-0.21-0.85-0.31-1.43-0.31c-0.67,0-1.23,0.15-1.69,0.45
		c-0.52,0.35-0.79,0.84-0.79,1.48v2.58h-0.27V86.4h0.27v2.97c0.14-0.46,0.48-0.81,0.99-1.03c0.42-0.18,0.91-0.27,1.47-0.27
		c0.62,0,1.15,0.1,1.58,0.31c0.56,0.28,0.84,0.69,0.84,1.26V92.77z"/>
	<path d="M101.34,92.77h-0.27V91.6c-0.16,0.44-0.5,0.78-1.01,1c-0.41,0.18-0.89,0.26-1.44,0.26c-0.66,0-1.2-0.11-1.62-0.34
		c-0.54-0.29-0.81-0.73-0.81-1.33v-3.01h0.27v3c0,0.54,0.24,0.94,0.71,1.2c0.38,0.2,0.86,0.3,1.45,0.3c0.73,0,1.3-0.15,1.73-0.46
		c0.49-0.35,0.73-0.87,0.73-1.56v-2.49h0.27V92.77z"/>
	<path d="M107.99,92.61c0,1.23-0.95,1.84-2.84,1.84c-0.64,0-1.18-0.09-1.62-0.26c-0.61-0.24-0.93-0.64-0.97-1.18h0.26
		c0.09,0.84,0.88,1.27,2.35,1.27c1.69,0,2.54-0.56,2.54-1.67V91.6c-0.16,0.44-0.5,0.78-1.01,1c-0.41,0.18-0.89,0.26-1.44,0.26
		c-0.66,0-1.2-0.11-1.62-0.34c-0.54-0.29-0.81-0.73-0.81-1.33v-3.01h0.27v3c0,0.54,0.24,0.94,0.71,1.2c0.38,0.2,0.86,0.3,1.45,0.3
		c0.72,0,1.3-0.15,1.72-0.46c0.49-0.35,0.73-0.87,0.73-1.56v-2.49h0.27V92.61z"/>
	<path d="M114.26,91.62c0,0.49-0.29,0.84-0.87,1.05c-0.39,0.14-0.89,0.22-1.48,0.22c-1.76,0-2.64-0.57-2.64-1.7h0.29
		c0,1,0.79,1.5,2.35,1.5c0.5,0,0.93-0.06,1.29-0.19c0.51-0.18,0.77-0.48,0.77-0.88c0-0.48-0.47-0.8-1.41-0.97
		c-0.06-0.01-0.49-0.07-1.29-0.16c-1.16-0.14-1.74-0.52-1.74-1.15c0-0.45,0.26-0.79,0.79-1.01c0.4-0.18,0.85-0.26,1.36-0.26
		c1.69,0,2.53,0.49,2.53,1.48h-0.3c0-0.86-0.72-1.29-2.17-1.29c-0.45,0-0.85,0.07-1.21,0.21c-0.48,0.2-0.71,0.48-0.71,0.86
		c0,0.48,0.46,0.78,1.39,0.91c0.23,0.03,0.67,0.09,1.34,0.19C113.7,90.59,114.26,90.98,114.26,91.62"/>
</g>
</svg>
